<?xml version="1.0" encoding="UTF-8" standalone="no"?>
<svg
   viewBox="0 0 5084.8169 1278.5942"
   style="clip-rule:evenodd;fill-rule:evenodd;stroke-linecap:round;stroke-linejoin:round;stroke-miterlimit:1.5"
   version="1.1"
   id="svg5"
   sodipodi:docname="sbi-wings.svg"
   width="5084.8169"
   height="1278.5941"
   inkscape:version="1.4 (86a8ad7, 2024-10-11)"
   xmlns:inkscape="http://www.inkscape.org/namespaces/inkscape"
   xmlns:sodipodi="http://sodipodi.sourceforge.net/DTD/sodipodi-0.dtd"
   xmlns="http://www.w3.org/2000/svg"
   xmlns:svg="http://www.w3.org/2000/svg">
  <defs
     id="defs5">
    <inkscape:path-effect
       effect="powerclip"
       message=""
       id="path-effect15"
       is_visible="true"
       lpeversion="1"
       inverse="true"
       flatten="false"
       hide_clip="false" />
    <inkscape:path-effect
       effect="powerclip"
       message=""
       id="path-effect12"
       is_visible="true"
       lpeversion="1"
       inverse="true"
       flatten="false"
       hide_clip="false" />
    <clipPath
       clipPathUnits="userSpaceOnUse"
       id="clipPath3">
      <rect
         style="opacity:0;fill:#1d1d1d;fill-opacity:1"
         id="rect4"
         width="581.55444"
         height="150.92822"
         x="78.599731"
         y="127.51553" />
    </clipPath>
    <clipPath
       clipPathUnits="userSpaceOnUse"
       id="clipPath5">
      <rect
         style="opacity:0.67;fill:#ff0000;stroke-width:0.105473"
         id="rect6"
         width="242.37729"
         height="99.250229"
         x="403.33615"
         y="144.69746" />
    </clipPath>
    <clipPath
       clipPathUnits="userSpaceOnUse"
       id="clipath_lpe_path-effect15">
      <path
         style="clip-rule:evenodd;display:block;opacity:0.5;fill:#ff0000;fill-rule:evenodd;stroke-width:0.105473;stroke-linecap:round;stroke-linejoin:round;stroke-miterlimit:1.5"
         d="m 429.57411,240.36325 c -20.62575,-4.97258 -28.3146,-17.31907 -28.3146,-17.31907 l -23.76428,33.03293 59.90875,18.03591 c 0,0 4.72143,-25.31191 -7.82987,-33.74977 z"
         id="path15"
         sodipodi:nodetypes="ccccc" />
    </clipPath>
  </defs>
  <sodipodi:namedview
     id="namedview5"
     pagecolor="#ffffff"
     bordercolor="#000000"
     borderopacity="0.25"
     inkscape:showpageshadow="2"
     inkscape:pageopacity="0.0"
     inkscape:pagecheckerboard="0"
     inkscape:deskcolor="#d1d1d1"
     inkscape:zoom="0.25"
     inkscape:cx="2512"
     inkscape:cy="666"
     inkscape:window-width="2560"
     inkscape:window-height="1369"
     inkscape:window-x="2552"
     inkscape:window-y="1432"
     inkscape:window-maximized="1"
     inkscape:current-layer="svg5" />
  <path
     style="clip-rule:evenodd;display:inline;opacity:1;fill:#fecc00;fill-rule:evenodd;stroke-width:9.48109;stroke-linecap:round;stroke-linejoin:round;stroke-miterlimit:1.5;fill-opacity:1"
     d="m 2112.3946,271.11252 v 113.77304 c 0,124.85784 -1.7922,128.04178 -56.2279,99.89196 -39.3678,-20.35779 -65.9611,-56.03075 -123.8408,-166.12285 C 1848.7922,159.76665 1769.2961,93.593605 1636.7129,72.584555 1603.7131,67.355365 1386.8545,58.664145 1154.8049,53.270735 609.27353,40.591105 288.25352,27.241075 130.15735,10.659415 60.355892,3.3384951 1.9045219,-1.3102649 0.26524193,0.32901514 -6.5516581,7.1458151 119.94395,104.91876 159.29093,123.2457 c 41.69971,19.42257 58.10834,19.99703 725.3031,25.39101 615.19217,4.97368 687.69987,7.1603 733.86837,22.1317 106.2227,34.44573 154.1012,80.09602 224.9105,214.44368 73.6667,139.76893 133.2249,193.88309 233.4677,212.12697 26.7517,4.86873 35.554,11.05893 35.554,25.00333 0,12.87655 -6.5104,18.55477 -21.3324,18.6055 -15.1487,0.0474 -27.9438,11.73227 -44.1402,40.29462 -27.1254,47.8357 -94.7378,137.2066 -122.9939,162.5749 -11.0645,9.9337 -20.1174,21.6666 -20.1174,26.073 0,17.7017 137.3955,3.3229 191.992,-15.6127 41.0237,-14.2282 97.5919,-55.2676 138.2143,-115.4223 41.9179,-62.07309 -121.6224,-467.74289 -121.6224,-467.74289 z m -316.3334,588.37949 c 16.3495,-3.9564 42.8236,-16.5197 58.8315,-27.9184 32.1469,-22.8905 162.1007,-179.90081 162.4628,-196.28764 0.1251,-5.68125 -9.6471,-14.82908 -21.7171,-20.32849 -17.6195,-8.02801 -26.4969,-6.33156 -45.0352,8.60617 -108.5848,87.49486 -277.3836,177.26386 -363.2941,193.20366 -44.2608,8.2121 -32.4778,17.0117 41.5501,31.03 83.3414,15.7819 135.2956,19.4158 167.202,11.6947 z m -247.6,-95.2482 c 36.6075,-9.4724 104.8336,-34.9054 151.6138,-56.5179 91.0782,-42.07828 222.6979,-120.34322 222.6979,-132.42269 0,-9.85825 -32.4316,-38.72028 -43.5091,-38.72028 -4.8577,0 -92.1126,27.46006 -193.8998,61.02245 -179.0411,59.03521 -345.9055,100.15602 -406.424,100.15602 -16.1283,0 -29.3242,3.4763 -29.3242,7.7251 0,18.596 157.162,78.0608 202.9573,76.7922 16.1312,-0.4465 59.2808,-8.5625 95.8881,-18.0349 z M 1341.0587,626.74977 c 58.1155,-12.32114 134.9123,-31.01358 170.6595,-41.53882 55.3494,-16.29685 230.4326,-60.78078 318.747,-80.98497 25.7645,-5.89439 25.9599,-6.47065 11.6078,-34.22464 -13.9286,-26.935 -17.4293,-28.22927 -76.3551,-28.22927 -94.4748,0 -231.6506,17.02851 -383.3669,47.58975 -191.3145,38.53786 -308.6712,56.5853 -369.7624,56.86319 l -52.14587,0.23703 61.34107,39.28052 c 67.9746,43.52823 127.9913,64.92325 179.5631,64.01126 18.726,-0.33089 81.5963,-10.683 139.7118,-23.00414 z M 1164.286,460.24407 c 224.1558,-38.79717 385.9498,-56.37169 519.0895,-56.38487 63.8788,-0.006 116.1274,-3.21134 116.1078,-7.12228 -0.019,-3.91095 -8.4897,-20.97691 -18.8228,-37.92435 l -18.7873,-30.81353 -92.58,-2.28797 c -157.8496,-3.901 -303.3295,2.59307 -495.5261,22.11975 -101.6846,10.33097 -250.58177,24.95336 -330.88247,32.49434 -80.3007,7.54087 -147.8329,15.54224 -150.0715,17.78082 -6.1919,6.19191 76.7875,52.70403 130.3039,73.03869 65.2375,24.7883 150.7588,22.05575 341.16897,-10.9006 z M 874.32413,322.35514 c 297.73897,-35.98707 756.52377,-55.89973 835.12437,-36.24686 26.1811,6.54613 27.3671,5.80594 14.9121,-9.30767 -54.8533,-66.56225 -247.4797,-95.81861 -536.6059,-81.50027 -88.5194,4.38367 -318.46547,11.02716 -510.99107,14.76328 -388.60673,7.54107 -373.62964,3.64813 -251.98655,65.49781 127.19795,64.67409 220.90995,74.42861 449.54705,46.79371 z"
     id="path17"
     clip-path="none"
     sodipodi:nodetypes="cssssssssssssscssssscsssssssssssssssssssssssscsssssssscsssssssssssss"
     inkscape:label="l wing" />
  <path
     style="clip-rule:evenodd;display:inline;opacity:1;fill:#fecc00;fill-rule:evenodd;stroke-width:9.48109;stroke-linecap:round;stroke-linejoin:round;stroke-miterlimit:1.5;fill-opacity:1"
     d="m 2972.4223,271.11253 v 113.77303 c 0,124.85785 1.7922,128.04178 56.2279,99.89197 39.3678,-20.35779 65.9611,-56.03076 123.8408,-166.12285 83.5337,-158.88803 163.0298,-225.061076 295.613,-246.07012 32.9998,-5.229198 249.8584,-13.920415 481.908,-19.313826 C 4475.5434,40.591109 4796.5634,27.241076 4954.6596,10.659415 5024.461,3.3384993 5082.9124,-1.3102668 5084.5517,0.32901295 5091.3686,7.145819 4964.873,104.91876 4925.526,123.2457 c -41.6997,19.42257 -58.1083,19.99703 -725.3031,25.39101 -615.1922,4.97368 -687.6998,7.16031 -733.8684,22.1317 -106.2227,34.44573 -154.1012,80.09603 -224.9105,214.44368 -73.6667,139.76894 -133.2249,193.88309 -233.4677,212.12698 -26.7517,4.86872 -35.554,11.05892 -35.554,25.00333 0,12.87654 6.5104,18.55477 21.3324,18.60549 15.1487,0.0474 27.9438,11.73228 44.1403,40.29462 27.1253,47.83568 94.7377,137.20658 122.9938,162.57493 11.0645,9.93371 20.1174,21.66656 20.1174,26.07299 0,17.70166 -137.3955,3.32293 -191.992,-15.6127 -41.0236,-14.22817 -97.5919,-55.26762 -138.2143,-115.42236 -41.9179,-62.07305 121.6224,-467.74284 121.6224,-467.74284 z m 316.3334,588.37951 c -16.3495,-3.95645 -42.8236,-16.51975 -58.8315,-27.91838 -32.1469,-22.89057 -162.1007,-179.90086 -162.4628,-196.28768 -0.1251,-5.68126 9.6471,-14.82909 21.7171,-20.3285 17.6195,-8.02801 26.4969,-6.33156 45.0352,8.60617 108.5848,87.49488 277.3836,177.26389 363.2942,193.20368 44.2607,8.21204 32.4777,17.01172 -41.5502,31.02998 -83.3414,15.78194 -135.2956,19.41585 -167.202,11.69473 z m 247.6,-95.24822 c -36.6075,-9.47236 -104.8336,-34.90538 -151.6138,-56.51789 -91.0782,-42.07829 -222.6979,-120.34324 -222.6979,-132.42271 0,-9.85824 32.4316,-38.72028 43.5091,-38.72028 4.8577,0 92.1126,27.46007 193.8998,61.02245 179.0411,59.03521 345.9055,100.15601 406.424,100.15601 16.1283,0 29.3242,3.47634 29.3242,7.7251 0,18.59601 -157.162,78.06081 -202.9573,76.79224 -16.1312,-0.44656 -59.2808,-8.56256 -95.8881,-18.03492 z m 207.4025,-137.49405 c -58.1155,-12.32114 -134.9123,-31.01358 -170.6595,-41.53881 -55.3494,-16.29685 -230.4326,-60.78078 -318.747,-80.98498 -25.7645,-5.89439 -25.9599,-6.47065 -11.6078,-34.22463 13.9286,-26.93501 17.4293,-28.22927 76.3551,-28.22927 94.4748,0 231.6506,17.0285 383.3669,47.58974 191.3145,38.53787 308.6712,56.5853 369.7624,56.86319 l 52.1459,0.23703 -61.3411,39.28052 c -67.9746,43.52823 -127.9913,64.92325 -179.5631,64.01127 -18.726,-0.33089 -81.5963,-10.68301 -139.7118,-23.00415 z m 176.7727,-166.50569 c -224.1558,-38.79718 -385.9498,-56.3717 -519.0895,-56.38487 -63.8788,-0.006 -116.1274,-3.21134 -116.1078,-7.12229 0.019,-3.91095 8.4897,-20.9769 18.8228,-37.92435 l 18.7873,-30.81353 92.58,-2.28797 c 157.8496,-3.90099 303.3295,2.59308 495.5261,22.11975 101.6846,10.33097 250.5818,24.95337 330.8825,32.49434 80.3007,7.54088 147.8329,15.54225 150.0715,17.78083 6.1919,6.19191 -76.7874,52.70403 -130.3039,73.03868 -65.2375,24.7883 -150.7588,22.05576 -341.169,-10.90059 z m 289.9619,-137.88894 c -297.739,-35.98707 -756.5238,-55.89972 -835.1244,-36.24685 -26.1811,6.54612 -27.3671,5.80593 -14.9121,-9.30768 54.8533,-66.56225 247.4797,-95.81861 536.6059,-81.50027 88.5195,4.38368 318.4655,11.02717 510.9911,14.76328 388.6067,7.54107 373.6296,3.64814 251.9866,65.49781 -127.198,64.67409 -220.91,74.42861 -449.5471,46.79371 z"
     id="path2-0"
     clip-path="none"
     sodipodi:nodetypes="cssssssssssssscssssscsssssssssssssssssssssssscsssssssscsssssssssssss"
     inkscape:label="r wing" />
  <a
     id="a5"
     style="display:inline"
     transform="translate(2100.6121,189.24203)"
     inkscape:label="sköld">
    <path
       d="m 877.346,76.159097 3.68,277.312003 c 3.02,246.247 -161.93,504.572 -444.163,735.381 C 183.083,869.4501 1.672,612.6581 0.5,346.8281 L 1.529,83.363097 c 290.545,-109.644 582.525,-108.881 875.817,-7.204 z"
       style="display:inline;fill:#fecc00;stroke:#006aa7;stroke-width:1px"
       id="path1" />
    <path
       style="display:inline;fill:#006aa7"
       d="m 437.78906,455.50781 -0.0117,565.19339 C 628.77115,840.65435 771.75692,669.0596 817.79688,455.50781 Z m 153.84961,57.5586 a 103.91479,103.91479 0 0 1 2.86328,0.0391 103.91479,103.91479 0 0 1 2.86133,0.11719 103.91479,103.91479 0 0 1 2.85742,0.19922 103.91479,103.91479 0 0 1 1.78907,0.17187 l -1.04688,10.43359 17.63477,3.50782 3.02539,-10.04102 a 103.91479,103.91479 0 0 1 1.03711,0.30859 103.91479,103.91479 0 0 1 2.7207,0.89258 103.91479,103.91479 0 0 1 2.69531,0.96875 103.91479,103.91479 0 0 1 2.66797,1.03906 103.91479,103.91479 0 0 1 2.63672,1.11524 103.91479,103.91479 0 0 1 2.60742,1.18555 103.91479,103.91479 0 0 1 2.57227,1.25781 103.91479,103.91479 0 0 1 2.22656,1.16601 l -4.96289,9.24219 14.95117,9.99024 6.64063,-8.1211 a 103.91479,103.91479 0 0 1 0.28515,0.22852 103.91479,103.91479 0 0 1 2.18555,1.84961 103.91479,103.91479 0 0 1 2.13281,1.91015 103.91479,103.91479 0 0 1 2.08008,1.96875 103.91479,103.91479 0 0 1 2.02344,2.02539 103.91479,103.91479 0 0 1 1.96875,2.08008 103.91479,103.91479 0 0 1 1.91015,2.13282 103.91479,103.91479 0 0 1 1.85157,2.18554 103.91479,103.91479 0 0 1 0.22851,0.28516 l -8.12109,6.64062 9.98828,14.94922 9.24219,-4.96289 a 103.91479,103.91479 0 0 1 1.16601,2.22656 103.91479,103.91479 0 0 1 1.25781,2.57422 103.91479,103.91479 0 0 1 1.1875,2.60547 103.91479,103.91479 0 0 1 1.11329,2.63867 103.91479,103.91479 0 0 1 1.04101,2.66797 103.91479,103.91479 0 0 1 0.9668,2.69531 103.91479,103.91479 0 0 1 0.89258,2.72071 103.91479,103.91479 0 0 1 0.30859,1.03515 l -10.04102,3.02735 3.50782,17.63281 10.43554,-1.04492 a 103.91479,103.91479 0 0 1 0.17188,1.78711 103.91479,103.91479 0 0 1 0.19726,2.85742 103.91479,103.91479 0 0 1 0.11914,2.86133 103.91479,103.91479 0 0 1 0.0391,2.86328 103.91479,103.91479 0 0 1 -0.35547,8.58008 103.91479,103.91479 0 0 1 -0.22266,1.78515 l -10.38476,-1.04101 -3.50782,17.63281 9.96485,3.00391 a 103.91479,103.91479 0 0 1 -1.125,3.77929 103.91479,103.91479 0 0 1 -3.1211,8.00196 103.91479,103.91479 0 0 1 -3.61914,7.40039 l -9.23437,-4.95703 -9.98828,14.94921 8.06836,6.59766 a 103.91479,103.91479 0 0 1 -3.9375,4.64649 103.91479,103.91479 0 0 1 -6.07227,6.07421 103.91479,103.91479 0 0 1 -4.64844,3.93555 l -6.5957,-8.06836 -14.95117,9.98828 4.95898,9.23438 a 103.91479,103.91479 0 0 1 -7.40234,3.61914 103.91479,103.91479 0 0 1 -8,3.12109 103.91479,103.91479 0 0 1 -3.78125,1.12695 l -3.00195,-9.96484 -17.63477,3.50781 1.04102,10.38477 a 103.91479,103.91479 0 0 1 -1.78321,0.22266 103.91479,103.91479 0 0 1 -8.58203,0.35351 103.91479,103.91479 0 0 1 -8.58008,-0.35351 103.91479,103.91479 0 0 1 -1.7832,-0.22266 l 1.04102,-10.38477 -17.63477,-3.50781 -3.00195,9.96484 a 103.91479,103.91479 0 0 1 -3.78125,-1.12695 103.91479,103.91479 0 0 1 -8,-3.12109 103.91479,103.91479 0 0 1 -7.40235,-3.61914 l 4.95899,-9.23438 -14.95117,-9.98828 -6.59766,8.06836 a 103.91479,103.91479 0 0 1 -4.64648,-3.93555 103.91479,103.91479 0 0 1 -6.07227,-6.07421 103.91479,103.91479 0 0 1 -3.9375,-4.64649 l 8.06836,-6.59766 -9.98828,-14.94921 -9.23438,4.95703 a 103.91479,103.91479 0 0 1 -3.61914,-7.40039 103.91479,103.91479 0 0 1 -3.12109,-8.00196 103.91479,103.91479 0 0 1 -1.125,-3.77929 l 9.96289,-3.00391 -3.50586,-17.63281 -10.38477,1.04101 a 103.91479,103.91479 0 0 1 -0.22265,-1.78515 103.91479,103.91479 0 0 1 -0.35547,-8.58008 103.91479,103.91479 0 0 1 0.35547,-8.58203 103.91479,103.91479 0 0 1 0.2207,-1.78321 l 10.38672,1.04102 3.50586,-17.63281 -9.96289,-3.00391 a 103.91479,103.91479 0 0 1 1.125,-3.7793 103.91479,103.91479 0 0 1 3.12109,-8.00195 103.91479,103.91479 0 0 1 3.61914,-7.40039 l 9.23438,4.95703 9.98828,-14.94922 -8.06836,-6.59765 a 103.91479,103.91479 0 0 1 3.9375,-4.64649 103.91479,103.91479 0 0 1 6.07227,-6.07422 103.91479,103.91479 0 0 1 4.64648,-3.93554 l 6.59766,8.06836 14.95117,-9.99024 -4.95899,-9.23437 a 103.91479,103.91479 0 0 1 7.40235,-3.61719 103.91479,103.91479 0 0 1 8,-3.12305 103.91479,103.91479 0 0 1 3.78125,-1.125 l 3.00195,9.96485 17.63477,-3.50782 -1.04102,-10.38476 a 103.91479,103.91479 0 0 1 1.7832,-0.2207 103.91479,103.91479 0 0 1 8.58008,-0.35547 z m -0.40429,43.0625 a 59.109049,60.852208 0 0 0 -5.78516,0.33398 59.109049,60.852208 0 0 0 -5.72266,0.91406 59.109049,60.852208 0 0 0 -5.60937,1.48633 59.109049,60.852208 0 0 0 -5.44141,2.04492 59.109049,60.852208 0 0 0 -5.2207,2.58399 59.109049,60.852208 0 0 0 -4.94922,3.0957 59.109049,60.852208 0 0 0 -4.63281,3.58008 59.109049,60.852208 0 0 0 -4.26953,4.0293 59.109049,60.852208 0 0 0 -3.86329,4.4414 59.109049,60.852208 0 0 0 -3.42578,4.8086 59.109049,60.852208 0 0 0 -2.95117,5.13281 59.109049,60.852208 0 0 0 -2.44922,5.40234 59.109049,60.852208 0 0 0 -1.92383,5.625 59.109049,60.852208 0 0 0 -1.3789,5.79102 59.109049,60.852208 0 0 0 -0.82422,5.90429 59.109049,60.852208 0 0 0 -0.25586,5.95508 59.109049,60.852208 0 0 0 0.31055,5.95508 59.109049,60.852208 0 0 0 0.875,5.89453 59.109049,60.852208 0 0 0 1.42968,5.7793 59.109049,60.852208 0 0 0 1.97461,5.60547 59.109049,60.852208 0 0 0 2.49805,5.38086 59.109049,60.852208 0 0 0 2.99609,5.10351 59.109049,60.852208 0 0 0 3.4668,4.77539 59.109049,60.852208 0 0 0 3.9043,4.40625 59.109049,60.852208 0 0 0 4.30469,3.98828 59.109049,60.852208 0 0 0 4.66406,3.53711 59.109049,60.852208 0 0 0 4.97656,3.04883 59.109049,60.852208 0 0 0 5.24414,2.53516 59.109049,60.852208 0 0 0 5.45899,1.99219 59.109049,60.852208 0 0 0 5.62304,1.43359 59.109049,60.852208 0 0 0 5.73047,0.85937 59.109049,60.852208 0 0 0 5.78711,0.2793 59.109049,60.852208 0 0 0 5.7832,-0.30469 59.109049,60.852208 0 0 0 5.72852,-0.88672 59.109049,60.852208 0 0 0 5.61523,-1.46093 59.109049,60.852208 0 0 0 5.45118,-2.01953 59.109049,60.852208 0 0 0 5.23046,-2.5586 59.109049,60.852208 0 0 0 4.96485,-3.07226 59.109049,60.852208 0 0 0 4.64844,-3.5586 59.109049,60.852208 0 0 0 4.28711,-4.00976 59.109049,60.852208 0 0 0 3.88476,-4.42383 59.109049,60.852208 0 0 0 3.44531,-4.79297 59.109049,60.852208 0 0 0 2.97461,-5.11719 59.109049,60.852208 0 0 0 2.47266,-5.39062 59.109049,60.852208 0 0 0 1.94922,-5.61719 59.109049,60.852208 0 0 0 1.40429,-5.7832 59.109049,60.852208 0 0 0 0.84961,-5.90039 59.109049,60.852208 0 0 0 0.28321,-5.95508 c 0,0 3.9e-4,-0.13931 0,-0.20899 l -0.002,-0.3496 a 59.109049,60.852208 0 0 0 -0.33593,-5.95118 59.109049,60.852208 0 0 0 -0.90235,-5.89062 59.109049,60.852208 0 0 0 -1.45703,-5.77149 59.109049,60.852208 0 0 0 -1.99805,-5.59765 59.109049,60.852208 0 0 0 -2.51953,-5.36719 59.109049,60.852208 0 0 0 -3.02148,-5.08984 59.109049,60.852208 0 0 0 -3.48828,-4.75977 59.109049,60.852208 0 0 0 -3.92383,-4.38672 59.109049,60.852208 0 0 0 -4.32227,-3.96875 59.109049,60.852208 0 0 0 -4.67968,-3.51562 59.109049,60.852208 0 0 0 -4.99024,-3.02539 59.109049,60.852208 0 0 0 -5.2539,-2.50977 59.109049,60.852208 0 0 0 -5.46875,-1.9668 59.109049,60.852208 0 0 0 -5.62891,-1.4082 59.109049,60.852208 0 0 0 -5.73438,-0.83203 59.109049,60.852208 0 0 0 -5.7871,-0.25195 z m 0.33007,8.60547 a 10.877068,10.877068 0 0 1 10.95117,10.77734 v 0.0996 a 10.877068,10.877068 0 0 1 -10.85156,10.87695 10.877068,10.877068 0 0 1 -10.90234,-10.82617 10.877068,10.877068 0 0 1 10.80273,-10.92773 z m -28.50976,11.74023 a 10.877068,10.877068 0 0 1 10.95117,10.77734 v 0.0996 a 10.877068,10.877068 0 0 1 -10.85156,10.87696 10.877068,10.877068 0 0 1 -10.90235,-10.82813 10.877068,10.877068 0 0 1 10.80274,-10.92578 z m 58.69726,0.83789 a 10.877068,10.877068 0 0 1 10.95117,10.77734 v 0.0996 a 10.877068,10.877068 0 0 1 -10.85156,10.87696 10.877068,10.877068 0 0 1 -10.90234,-10.82618 10.877068,10.877068 0 0 1 10.80273,-10.92773 z m -30.11328,16.64844 a 23.018507,23.018507 0 0 1 23.01953,23.01953 23.018507,23.018507 0 0 1 -23.01953,23.01758 23.018507,23.018507 0 0 1 -23.01758,-23.01758 23.018507,23.018507 0 0 1 23.01758,-23.01953 z m -41.16211,12.14258 a 10.877068,10.877068 0 0 1 10.95117,10.77734 v 0.0996 a 10.877068,10.877068 0 0 1 -10.85156,10.87695 10.877068,10.877068 0 0 1 -10.90234,-10.82812 10.877068,10.877068 0 0 1 10.80273,-10.92578 z m 82.17578,0 a 10.877068,10.877068 0 0 1 10.95118,10.77734 l 0.002,0.0996 a 10.877068,10.877068 0 0 1 -10.85352,10.87695 10.877068,10.877068 0 0 1 -10.90234,-10.82812 10.877068,10.877068 0 0 1 10.80273,-10.92578 z m -69.59765,29.06836 a 10.877068,10.877068 0 0 1 10.95117,10.77734 v 0.0996 a 10.877068,10.877068 0 0 1 -10.85156,10.87695 10.877068,10.877068 0 0 1 -10.90235,-10.82812 10.877068,10.877068 0 0 1 10.80274,-10.92578 z m 58.69726,0 a 10.877068,10.877068 0 0 1 10.95117,10.77734 v 0.0996 a 10.877068,10.877068 0 0 1 -10.85156,10.87695 10.877068,10.877068 0 0 1 -10.90234,-10.82812 10.877068,10.877068 0 0 1 10.80273,-10.92578 z M 591.56445,647.75 a 10.877068,10.877068 0 0 1 10.95117,10.77734 v 0.0996 A 10.877068,10.877068 0 0 1 591.66406,669.50391 10.877068,10.877068 0 0 1 580.76172,658.67578 10.877068,10.877068 0 0 1 591.56445,647.75 Z"
       id="path2" />
    <path
       style="display:inline;fill:#006aa7"
       d="M 434.77344,55.449219 C 289.05258,62.235212 158.59432,86.122222 55.107422,123.49219 55.867421,244.78907 49.250501,380.10765 66.021484,452.51758 l 368.751956,-0.0156 z M 163.90039,161.9375 c 7.35748,0 13.33008,5.95549 13.33008,13.33008 0,3.6103 -1.4547,6.89555 -3.79883,9.29101 7.30615,0.0856 13.19141,6.02198 13.19141,13.32813 0,7.35748 -5.97065,13.33008 -13.32813,13.33008 -2.4639,0 -4.75738,-0.6861 -6.74219,-1.84961 v 1.45508 c 0.0513,6.77572 5.56021,12.23437 12.33594,12.23437 6.77573,0 12.28656,-5.45865 12.33789,-12.23437 h 4.58594 c 0.0513,6.77572 5.56021,12.23437 12.33594,12.23437 6.79283,0 12.30218,-5.45865 12.35351,-12.23437 v -1.9336 c -1.4886,0.6502 -3.13122,1.02735 -4.85937,1.02735 -6.74151,0 -12.2168,-5.47576 -12.2168,-12.23438 0,-6.65595 5.33819,-12.09656 11.99414,-12.19922 -2.17302,-2.22435 -3.49023,-5.23675 -3.49023,-8.53906 0,-6.77573 5.45818,-12.23438 12.21679,-12.23438 2.46391,0 4.75747,0.73727 6.67383,1.98633 l -5.5625,63.08594 v 27 H 102.68164 v -27 l -1.92578,-21.18359 -3.800782,-41.81836 0.01953,-0.0156 c 1.940322,-1.30039 4.277252,-2.05469 6.789062,-2.05469 6.74151,0 12.22852,5.45865 12.22852,12.23438 0,3.30231 -1.33628,6.31424 -3.49219,8.52148 6.70729,0.0856 12.09766,5.52663 12.09766,12.2168 0,6.75862 -5.47529,12.23438 -12.2168,12.23438 -1.80686,0 -3.52206,-0.41176 -5.07227,-1.11329 v 2.01954 c 0.0565,6.77572 5.56803,12.23437 12.34375,12.23437 6.79284,0 12.28656,-5.45865 12.33789,-12.23437 h 4.55079 c 0.0513,6.77572 5.56021,12.23437 12.33593,12.23437 6.77573,0 12.28656,-5.45865 12.33789,-12.23437 v -1.36915 c -1.95058,1.11218 -4.19243,1.76368 -6.58789,1.76368 -7.35748,0 -13.33007,-5.9726 -13.33007,-13.33008 0,-7.27193 5.83502,-13.19273 13.08984,-13.3125 -2.36124,-2.41257 -3.79883,-5.69634 -3.79883,-9.30664 0,-7.37459 5.95502,-13.33008 13.3125,-13.33008 z m 150.98242,0 c 7.35748,0 13.33008,5.95549 13.33008,13.33008 0,3.6103 -1.4547,6.89555 -3.79883,9.29101 7.30615,0.0856 13.19141,6.02198 13.19141,13.32813 0,7.35748 -5.97064,13.33008 -13.32813,13.33008 -2.4639,0 -4.75737,-0.6861 -6.74218,-1.84961 v 1.45508 c 0.0513,6.77572 5.56021,12.23437 12.33593,12.23437 6.77573,0 12.28656,-5.45865 12.33789,-12.23437 h 4.58594 c 0.0513,6.77572 5.56021,12.23437 12.33594,12.23437 6.79284,0 12.30218,-5.45865 12.35352,-12.23437 v -1.9336 c -1.48861,0.6502 -3.13123,1.02735 -4.85938,1.02735 -6.74151,0 -12.2168,-5.47576 -12.2168,-12.23438 0,-6.65595 5.33819,-12.09656 11.99414,-12.19922 -2.17302,-2.22435 -3.49023,-5.23675 -3.49023,-8.53906 0,-6.77573 5.45818,-12.23438 12.2168,-12.23438 2.4639,0 4.75746,0.73727 6.67382,1.98633 l -5.5625,63.08594 v 27 H 253.66406 v -27 l -1.92578,-21.18359 -3.80078,-41.81836 0.0195,-0.0156 c 1.94032,-1.30039 4.27725,-2.05469 6.78906,-2.05469 6.74151,0 12.22852,5.45865 12.22852,12.23438 0,3.30231 -1.33627,6.31424 -3.49219,8.52148 6.70728,0.0856 12.09766,5.52663 12.09766,12.2168 0,6.75862 -5.4753,12.23438 -12.2168,12.23438 -1.80686,0 -3.52011,-0.41176 -5.07031,-1.11329 v 2.01954 c 0.0565,6.77572 5.56607,12.23437 12.3418,12.23437 6.79283,0 12.28655,-5.45865 12.33789,-12.23437 h 4.55078 c 0.0513,6.77572 5.56021,12.23437 12.33594,12.23437 6.77572,0 12.28655,-5.45865 12.33789,-12.23437 v -1.36915 c -1.95059,1.11218 -4.19244,1.76368 -6.58789,1.76368 -7.35749,0 -13.33008,-5.9726 -13.33008,-13.33008 0,-7.27193 5.83502,-13.19273 13.08984,-13.3125 -2.36124,-2.41257 -3.79883,-5.69634 -3.79883,-9.30664 0,-7.37459 5.95502,-13.33008 13.3125,-13.33008 z m -75.49023,111.95312 c 7.35748,0 13.32812,5.95549 13.32812,13.33008 0,3.6103 -1.4547,6.89556 -3.79882,9.29102 7.30615,0.0855 13.19335,6.02197 13.19335,13.32812 0,7.35749 -5.97259,13.33008 -13.33007,13.33008 -2.4639,0 -4.75543,-0.68415 -6.74024,-1.84765 v 1.45312 c 0.0513,6.77573 5.56021,12.23438 12.33594,12.23438 6.77573,0 12.28461,-5.45865 12.33594,-12.23438 h 4.58593 c 0.0513,6.77573 5.56021,12.23438 12.33594,12.23438 6.79284,0 12.30414,-5.45865 12.35547,-12.23438 v -1.93359 c -1.48861,0.65019 -3.13122,1.02734 -4.85937,1.02734 -6.74151,0 -12.2168,-5.47576 -12.2168,-12.23437 0,-6.65596 5.33819,-12.09656 11.99414,-12.19922 -2.17302,-2.22436 -3.49219,-5.23675 -3.49219,-8.53907 0,-6.77572 5.46014,-12.23242 12.21875,-12.23242 2.4639,0 4.75551,0.73532 6.67188,1.98438 L 300.75,341.73438 v 27 H 178.17188 v -27 l -1.92383,-21.1836 -3.80274,-41.8164 0.0215,-0.0176 c 1.94032,-1.3004 4.27725,-2.05274 6.78906,-2.05274 6.74151,0 12.22656,5.4567 12.22656,12.23242 0,3.30232 -1.33432,6.31424 -3.49023,8.52149 6.70728,0.0855 12.09765,5.52662 12.09765,12.2168 0,6.75861 -5.47529,12.23437 -12.21679,12.23437 -1.80686,0 -3.52206,-0.4098 -5.07227,-1.11133 v 2.01758 c 0.0565,6.77573 5.56802,12.23438 12.34375,12.23438 6.79284,0 12.28461,-5.45865 12.33594,-12.23438 h 4.55273 c 0.0513,6.77573 5.56021,12.23438 12.33594,12.23438 6.77573,0 12.28461,-5.45865 12.33594,-12.23438 v -1.36914 c -1.95059,1.11218 -4.19243,1.76367 -6.58789,1.76367 -7.35748,0 -13.32813,-5.97259 -13.32813,-13.33008 0,-7.27193 5.83503,-13.19077 13.08985,-13.31054 -2.36124,-2.41257 -3.79883,-5.6983 -3.79883,-9.3086 0,-7.37459 5.95502,-13.33008 13.3125,-13.33008 z"
       id="path3" />
    <path
       d="m 513.204,358.2101 -43.684,-24.346 c 60.185,-109.182 154.502,-158.906 284.386,-146.684 l 2.71,-24.234 52.93,62.594 -67.28,37.528 2.78,-25.724 c -109.95,-10.534 -182.593,36.971 -231.842,120.866 z"
       style="display:inline;fill:#006aa7"
       id="path4" />
    <path
       d="m 321.55106,831.76355 48.98321,10.08299 C 396.23851,719.85371 357.26837,620.609 250.91246,545.05989 l 13.77072,-20.12459 -80.95982,12.84944 26.45522,72.35383 14.69057,-21.29884 c 90.1555,63.81196 114.15836,147.22419 96.68191,242.92382 z"
       style="clip-rule:evenodd;display:inline;fill:#006aa7;fill-rule:evenodd;stroke-linecap:round;stroke-linejoin:round;stroke-miterlimit:1.5"
       id="path5" />
  </a>
</svg>
